<mxfile host="65bd71144e">
    <diagram id="gVMY261R4L8ysd8mMs0w" name="Page-1">
        <mxGraphModel dx="501" dy="1471" grid="1" gridSize="10" guides="1" tooltips="1" connect="1" arrows="1" fold="1" page="1" pageScale="1" pageWidth="850" pageHeight="1100" math="0" shadow="0">
            <root>
                <mxCell id="0"/>
                <mxCell id="1" parent="0"/>
                <mxCell id="6" value="id&lt;br&gt;NOM&amp;nbsp;&lt;br&gt;ADRESS&lt;br&gt;num" style="whiteSpace=wrap;html=1;aspect=fixed;strokeColor=#F0F0F0;" vertex="1" parent="1">
                    <mxGeometry x="28" y="-980" width="200" height="200" as="geometry"/>
                </mxCell>
                <mxCell id="7" value="salle de sport&amp;nbsp;" style="rounded=0;whiteSpace=wrap;html=1;strokeColor=#F0F0F0;" vertex="1" parent="1">
                    <mxGeometry x="30" y="-980" width="200" height="60" as="geometry"/>
                </mxCell>
                <mxCell id="19" value="1 a 20&amp;nbsp;" style="edgeStyle=none;html=1;entryX=1;entryY=0.5;entryDx=0;entryDy=0;" edge="1" parent="1" source="9" target="11">
                    <mxGeometry x="-0.0411" y="3" relative="1" as="geometry">
                        <mxPoint as="offset"/>
                    </mxGeometry>
                </mxCell>
                <mxCell id="23" value="1 a N" style="edgeStyle=none;html=1;entryX=1.01;entryY=0.55;entryDx=0;entryDy=0;entryPerimeter=0;" edge="1" parent="1" source="9" target="6">
                    <mxGeometry relative="1" as="geometry">
                        <Array as="points">
                            <mxPoint x="370" y="-860"/>
                        </Array>
                    </mxGeometry>
                </mxCell>
                <mxCell id="9" value="membre-id&lt;br&gt;membre_NOM&lt;br&gt;membre_prenom&lt;br&gt;membre_adress&lt;br&gt;date_naissance&lt;br&gt;sexe" style="whiteSpace=wrap;html=1;aspect=fixed;strokeColor=#F0F0F0;" vertex="1" parent="1">
                    <mxGeometry x="500" y="-940" width="200" height="200" as="geometry"/>
                </mxCell>
                <mxCell id="10" value="membre" style="rounded=0;whiteSpace=wrap;html=1;strokeColor=#F0F0F0;" vertex="1" parent="1">
                    <mxGeometry x="500" y="-1000" width="200" height="60" as="geometry"/>
                </mxCell>
                <mxCell id="11" value="type de sport&amp;nbsp;&lt;br&gt;horaire&lt;br&gt;capacite&amp;nbsp;" style="whiteSpace=wrap;html=1;aspect=fixed;strokeColor=#F0F0F0;" vertex="1" parent="1">
                    <mxGeometry x="131" y="-660" width="250" height="250" as="geometry"/>
                </mxCell>
                <mxCell id="12" value="seance" style="rounded=0;whiteSpace=wrap;html=1;strokeColor=#F0F0F0;" vertex="1" parent="1">
                    <mxGeometry x="130" y="-660" width="250" height="60" as="geometry"/>
                </mxCell>
                <mxCell id="20" value="1 a 2" style="edgeStyle=none;html=1;entryX=1;entryY=0.75;entryDx=0;entryDy=0;" edge="1" parent="1" source="16" target="11">
                    <mxGeometry x="-0.1347" y="2" relative="1" as="geometry">
                        <Array as="points">
                            <mxPoint x="450" y="-490"/>
                        </Array>
                        <mxPoint as="offset"/>
                    </mxGeometry>
                </mxCell>
                <mxCell id="16" value="&lt;br&gt;&lt;span style=&quot;color: rgb(240, 240, 240); font-family: Helvetica; font-size: 12px; font-style: normal; font-variant-ligatures: normal; font-variant-caps: normal; font-weight: 400; letter-spacing: normal; orphans: 2; text-align: center; text-indent: 0px; text-transform: none; widows: 2; word-spacing: 0px; -webkit-text-stroke-width: 0px; background-color: rgb(42, 37, 47); text-decoration-thickness: initial; text-decoration-style: initial; text-decoration-color: initial; float: none; display: inline !important;&quot;&gt;coach_NOM&lt;/span&gt;&lt;br style=&quot;border-color: rgb(0, 0, 0); color: rgb(240, 240, 240); font-family: Helvetica; font-size: 12px; font-style: normal; font-variant-ligatures: normal; font-variant-caps: normal; font-weight: 400; letter-spacing: normal; orphans: 2; text-align: center; text-indent: 0px; text-transform: none; widows: 2; word-spacing: 0px; -webkit-text-stroke-width: 0px; background-color: rgb(42, 37, 47); text-decoration-thickness: initial; text-decoration-style: initial; text-decoration-color: initial;&quot;&gt;&lt;span style=&quot;color: rgb(240, 240, 240); font-family: Helvetica; font-size: 12px; font-style: normal; font-variant-ligatures: normal; font-variant-caps: normal; font-weight: 400; letter-spacing: normal; orphans: 2; text-align: center; text-indent: 0px; text-transform: none; widows: 2; word-spacing: 0px; -webkit-text-stroke-width: 0px; background-color: rgb(42, 37, 47); text-decoration-thickness: initial; text-decoration-style: initial; text-decoration-color: initial; float: none; display: inline !important;&quot;&gt;coach_prenom&lt;/span&gt;&lt;br style=&quot;border-color: rgb(0, 0, 0); color: rgb(240, 240, 240); font-family: Helvetica; font-size: 12px; font-style: normal; font-variant-ligatures: normal; font-variant-caps: normal; font-weight: 400; letter-spacing: normal; orphans: 2; text-align: center; text-indent: 0px; text-transform: none; widows: 2; word-spacing: 0px; -webkit-text-stroke-width: 0px; background-color: rgb(42, 37, 47); text-decoration-thickness: initial; text-decoration-style: initial; text-decoration-color: initial;&quot;&gt;&lt;span style=&quot;color: rgb(240, 240, 240); font-family: Helvetica; font-size: 12px; font-style: normal; font-variant-ligatures: normal; font-variant-caps: normal; font-weight: 400; letter-spacing: normal; orphans: 2; text-align: center; text-indent: 0px; text-transform: none; widows: 2; word-spacing: 0px; -webkit-text-stroke-width: 0px; background-color: rgb(42, 37, 47); text-decoration-thickness: initial; text-decoration-style: initial; text-decoration-color: initial; float: none; display: inline !important;&quot;&gt;coach_adress&lt;/span&gt;&lt;br style=&quot;border-color: rgb(0, 0, 0); color: rgb(240, 240, 240); font-family: Helvetica; font-size: 12px; font-style: normal; font-variant-ligatures: normal; font-variant-caps: normal; font-weight: 400; letter-spacing: normal; orphans: 2; text-align: center; text-indent: 0px; text-transform: none; widows: 2; word-spacing: 0px; -webkit-text-stroke-width: 0px; background-color: rgb(42, 37, 47); text-decoration-thickness: initial; text-decoration-style: initial; text-decoration-color: initial;&quot;&gt;&lt;span style=&quot;color: rgb(240, 240, 240); font-family: Helvetica; font-size: 12px; font-style: normal; font-variant-ligatures: normal; font-variant-caps: normal; font-weight: 400; letter-spacing: normal; orphans: 2; text-align: center; text-indent: 0px; text-transform: none; widows: 2; word-spacing: 0px; -webkit-text-stroke-width: 0px; background-color: rgb(42, 37, 47); text-decoration-thickness: initial; text-decoration-style: initial; text-decoration-color: initial; float: none; display: inline !important;&quot;&gt;specialte&lt;/span&gt;&lt;br style=&quot;border-color: rgb(0, 0, 0); color: rgb(240, 240, 240); font-family: Helvetica; font-size: 12px; font-style: normal; font-variant-ligatures: normal; font-variant-caps: normal; font-weight: 400; letter-spacing: normal; orphans: 2; text-align: center; text-indent: 0px; text-transform: none; widows: 2; word-spacing: 0px; -webkit-text-stroke-width: 0px; background-color: rgb(42, 37, 47); text-decoration-thickness: initial; text-decoration-style: initial; text-decoration-color: initial;&quot;&gt;&lt;span style=&quot;color: rgb(240, 240, 240); font-family: Helvetica; font-size: 12px; font-style: normal; font-variant-ligatures: normal; font-variant-caps: normal; font-weight: 400; letter-spacing: normal; orphans: 2; text-align: center; text-indent: 0px; text-transform: none; widows: 2; word-spacing: 0px; -webkit-text-stroke-width: 0px; background-color: rgb(42, 37, 47); text-decoration-thickness: initial; text-decoration-style: initial; text-decoration-color: initial; float: none; display: inline !important;&quot;&gt;age&lt;/span&gt;&lt;br&gt;" style="whiteSpace=wrap;html=1;aspect=fixed;strokeColor=#F0F0F0;" vertex="1" parent="1">
                    <mxGeometry x="520" y="-650" width="240" height="240" as="geometry"/>
                </mxCell>
                <mxCell id="17" value="coach" style="rounded=0;whiteSpace=wrap;html=1;strokeColor=#F0F0F0;" vertex="1" parent="1">
                    <mxGeometry x="520" y="-650" width="240" height="60" as="geometry"/>
                </mxCell>
            </root>
        </mxGraphModel>
    </diagram>
</mxfile>